<svg id="Layer_3" enable-background="new 0 0 64 64" height="512" viewBox="0 0 64 64" width="512" xmlns="http://www.w3.org/2000/svg"><g><path d="m58 5h-3v-3c0-.552-.448-1-1-1h-44c-.552 0-1 .448-1 1v3h-3c-2.757 0-5 2.243-5 5v34c0 2.757 2.243 5 5 5h18v6h-2c-1.654 0-3 1.346-3 3v4c0 .552.448 1 1 1h24c.552 0 1-.448 1-1v-4c0-1.654-1.346-3-3-3h-2v-6h18c2.757 0 5-2.243 5-5v-34c0-2.757-2.243-5-5-5zm-10.508 22.492 5.478 1.643-2.341.937c-.254.102-.455.303-.557.557l-.937 2.341zm-2.199-2.199c-.19.19-.29.446-.291.707h-8.002v-2h12v1.856l-2.713-.814c-.35-.104-.733-.01-.994.251zm-2.293-7.293c2.206 0 4 1.794 4 4h-8c0-2.206 1.794-4 4-4zm8.77 13.77 1.23-.493v1.723h-1.723zm-.77-5.314v-3.456c0-.552-.448-1-1-1h-1c0-2.967-2.167-5.431-5-5.91v-1.09h-2v1.09c-2.833.478-5 2.942-5 5.91h-1c-.552 0-1 .448-1 1v4c0 .552.448 1 1 1h9.556l1.5 5h-36.056v-22h42v16.056zm2-23.456v6h-42v-6zm-47 4h3v27c0 .552.448 1 1 1h37.656l.386 1.287c.123.408.489.693.914.712.015.001.029.001.044.001.407 0 .776-.248.928-.628l.549-1.372h3.523c.552 0 1-.448 1-1v-3.523l1.372-.549c.395-.158.646-.548.627-.973s-.304-.791-.712-.914l-1.287-.385v-20.656h3c1.654 0 3 1.346 3 3v29h-58v-29c0-1.654 1.346-3 3-3zm37 51v3h-22v-3c0-.551.449-1 1-1h20c.551 0 1 .449 1 1zm-5-3h-12v-6h12zm20-8h-52c-1.654 0-3-1.346-3-3v-3h58v3c0 1.654-1.346 3-3 3z"/><path d="m49 5h2v2h-2z"/><path d="m45 5h2v2h-2z"/><path d="m41 5h2v2h-2z"/><path d="m30 22h-1c0-2.967-2.167-5.431-5-5.91v-1.09h-2v1.09c-2.833.478-5 2.942-5 5.91h-1c-.552 0-1 .448-1 1v4c0 .552.448 1 1 1h14c.552 0 1-.448 1-1v-4c0-.552-.448-1-1-1zm-7-4c2.206 0 4 1.794 4 4h-8c0-2.206 1.794-4 4-4zm6 8h-12v-2h12z"/><path d="m55 43h2v2h-2z"/></g></svg>