<svg height="512pt" viewBox="0 -67 512.001 512" width="512pt" xmlns="http://www.w3.org/2000/svg"><path d="m194.382812 147.679688h58.355469v-.460938c-.121093-19.085938-15.628906-34.5-34.714843-34.5h-23.636719c-12.320313 0-20.773438 12.398438-16.273438 23.867188 2.625 6.691406 9.082031 11.09375 16.269531 11.09375zm0 0" fill="#ffc15a"/><path d="m247.414062 281.074219c0 48.152343-39.035156 87.1875-87.183593 87.1875-48.152344 0-87.1875-39.035157-87.1875-87.1875 0-48.152344 39.035156-87.1875 87.1875-87.1875 48.148437 0 87.183593 39.035156 87.183593 87.1875zm0 0" fill="#aac0c1"/><path d="m502 281.074219c0 48.152343-39.035156 87.1875-87.1875 87.1875-48.148438 0-87.183594-39.035157-87.183594-87.1875 0-48.152344 39.035156-87.1875 87.183594-87.1875 48.152344 0 87.1875 39.035156 87.1875 87.1875zm0 0" fill="#aac0c1"/><path d="m179.820312 113.023438h-169.820312v1.367187c0 18.386719 14.902344 33.289063 33.285156 33.289063h103.25c18.382813 0 33.285156-14.902344 33.285156-33.289063zm0 0" fill="#becfcf"/><path d="m98.152344 24.730469h-6.484375c-43.507813 0-78.78125 35.269531-78.78125 78.777343v9.515626h164.046875v-9.515626c0-43.507812-35.273438-78.777343-78.78125-78.777343zm0 0" fill="#e5ecec"/><path d="m414.8125 183.886719c-4.851562 0-9.621094.363281-14.28125 1.054687l-28.742188-112.292968c-2.078124-16.402344-16.109374-29.132813-33.070312-29.132813h-24.351562c-5.519532 0-10 4.480469-10 10 0 5.523437 4.480468 10 10 10h24.351562c7.359375 0 13.347656 5.988281 13.347656 13.347656s-5.988281 13.347657-13.347656 13.347657h-12.230469c-5.523437 0-10 4.476562-10 10 0 5.523437 4.476563 10 10 10h12.230469c7.625 0 14.652344-2.578126 20.273438-6.898438l8.796874 34.367188h-106.140624c-4.476563-19.964844-22.378907-34.960938-43.628907-34.960938h-23.636719c-2.554687 0-5.054687.367188-7.449218 1.039062v-.25c0-46.679687-36.214844-85.058593-82.023438-88.523437v-4.984375c0-5.523438-4.476562-10-10-10-5.519531 0-10 4.476562-10 10v4.984375c-45.808594 3.464844-82.023437 41.84375-82.023437 88.527344v2.484375c-1.78125 1.804687-2.886719 4.285156-2.886719 7.027344v1.367187c0 22.679687 17.53125 41.324219 39.753906 43.132813.554688.09375 1.125.15625 1.707032.15625h12.394531l39.9375 52.53125c-18.914063 17.742187-30.75 42.945312-30.75 70.863281 0 31.410156 14.984375 59.382812 38.171875 77.160156h-91.214844c-5.523438 0-10 4.476563-10 10s4.476562 10 10 10h148.230469c.664062.011719 1.332031.023437 2 .023437 44.863281 0 82.714843-30.558593 93.855469-71.953124 3.308593 1.417968 6.945312 2.207031 10.765624 2.207031.429688 0 .851563-.015625 1.273438-.035157l5.875 13.175782h-.417969c-5.523437 0-10 4.476562-10 10 0 5.519531 4.476563 10 10 10h15.828125c3.386719 0 6.542969-1.71875 8.390625-4.558594 1.84375-2.839844 2.121094-6.421875.742188-9.515625l-12.15625-27.257813c4.882812-4.957031 7.902343-11.753906 7.902343-19.246093 0-7.242188-2.824218-13.832031-7.421874-18.738281l2.367187-3.917969c21.113281-34.933594 54.015625-60.476563 92.960937-72.277344l.960938 3.757813c-37.050781 13.722656-63.527344 49.414062-63.527344 91.175781 0 31.410156 14.980469 59.382812 38.171875 77.160156h-66.070312c-5.523438 0-10 4.476563-10 10s4.476562 10 10 10h123.082031c.667969.011719 1.332031.023437 2 .023437 53.589844 0 97.1875-43.597656 97.1875-97.183593 0-53.589844-43.597656-97.1875-97.1875-97.1875zm-226.5625-57.964844c.703125-1.007813 2.632812-3.203125 6.132812-3.203125h23.640626c10.136718 0 18.898437 6.175781 22.699218 14.960938h-3.527344c-.027343 0-.054687 0-.085937 0h-42.722656c-3.101563 0-5.832031-1.863282-6.964844-4.75-.410156-1.050782-.550781-2.03125-.527344-2.917969.515625-1.332031.96875-2.695313 1.355469-4.089844zm-96.582031-91.191406h6.484375c37.765625 0 68.519531 30.589843 68.777344 68.292969h-144.039063c.261719-37.703126 31.011719-68.292969 68.777344-68.292969zm-48.382813 102.949219c-9.792968 0-18.191406-6.078126-21.628906-14.65625h146.210938c-.128907.480468-.246094.96875-.351563 1.457031-3.769531 7.800781-11.753906 13.199219-20.980469 13.199219zm35.695313 20h140.945312l-20.023437 34.679687c-12.121094-5.441406-25.546875-8.472656-39.671875-8.472656-18.492188 0-35.796875 5.195312-50.53125 14.199219zm110.851562 52.121093-30.742187 53.25-37.199219-48.925781c11.304687-6.5 24.390625-10.238281 38.339844-10.238281 10.484375 0 20.480469 2.109375 29.601562 5.914062zm-29.269531 148.453125c-.109375-.003906-.21875-.019531-.332031-.019531h-1c-42.097657-.539063-76.1875-34.933594-76.1875-77.160156 0-21.429688 8.785156-40.839844 22.933593-54.839844l46.292969 60.890625c.007813.011719.011719.015625.019531.023438 1.875 2.453124 4.804688 3.925781 7.941407 3.925781h76.515625c-4.90625 37.742187-37.164063 67.011719-76.183594 67.179687zm16.988281-87.179687 29.582031-51.242188c15.890626 12.203125 26.90625 30.429688 29.613282 51.242188zm39.652344-68.683594 15.75-27.277344 13.058594 60.320313c-6.988281-13.078125-16.878907-24.382813-28.808594-33.042969zm47.648437 86.121094c-4.097656 0-7.4375-3.335938-7.4375-7.4375 0-4.101563 3.339844-7.4375 7.4375-7.4375 4.101563 0 7.4375 3.335937 7.4375 7.4375 0 4.101562-3.335937 7.4375-7.4375 7.4375zm5.265626-40.4375-.667969 1.105469-19.808594-91.5h123.265625l2.324219 9.074218c-44.050781 13.125-81.28125 41.886719-105.113281 81.320313zm145.03125 110.179687c-.113282-.003906-.222657-.019531-.335938-.019531h-1c-42.097656-.539063-76.183594-34.933594-76.183594-77.160156 0-32.433594 20.117188-60.242188 48.527344-71.648438l18.972656 74.128907c1.152344 4.519531 5.21875 7.523437 9.679688 7.523437.820312 0 1.652344-.105469 2.484375-.316406 5.351562-1.371094 8.578125-6.816407 7.210937-12.167969l-18.976562-74.128906c3.046875-.367188 6.144531-.578125 9.289062-.578125 42.558594 0 77.1875 34.625 77.1875 77.1875-.003906 42.449219-34.449218 76.996093-76.855468 77.179687zm0 0"/><path d="m249.730469 358.230469c-2.632813 0-5.210938 1.070312-7.070313 2.929687s-2.929687 4.441406-2.929687 7.070313c0 2.640625 1.070312 5.210937 2.929687 7.078125 1.859375 1.863281 4.4375 2.921875 7.070313 2.921875 2.628906 0 5.207031-1.058594 7.070312-2.921875 1.859375-1.867188 2.929688-4.4375 2.929688-7.078125 0-2.628907-1.070313-5.199219-2.929688-7.070313-1.863281-1.859375-4.441406-2.929687-7.070312-2.929687zm0 0"/></svg>